<?xml version="1.0" standalone="no"?>
<!DOCTYPE svg PUBLIC "-//W3C//DTD SVG 20010904//EN"
 "http://www.w3.org/TR/2001/REC-SVG-20010904/DTD/svg10.dtd">
<svg version="1.0" xmlns="http://www.w3.org/2000/svg"
 width="520.000000pt" height="520.000000pt" viewBox="0 0 520.000000 520.000000"
 preserveAspectRatio="xMidYMid meet">
<metadata>
Created by potrace 1.11, written by Peter Selinger 2001-2013
</metadata>
<g transform="translate(0.000000,520.000000) scale(0.100000,-0.100000)"
fill="#000000" stroke="none">
<path d="M2129 5155 c-2 -1 -56 -6 -119 -9 -157 -8 -311 -22 -315 -29 -1 -1
-16 -46 -34 -99 -17 -54 -35 -108 -40 -121 l-9 -24 -87 23 c-48 13 -104 26
-124 29 -20 3 -63 10 -96 16 -80 14 -390 19 -489 8 -82 -10 -215 -44 -217 -57
0 -4 -2 -14 -4 -22 -1 -8 -6 -46 -9 -85 -4 -38 -9 -81 -11 -95 -2 -14 -6 -52
-10 -85 -3 -33 -10 -85 -15 -115 -5 -30 -11 -68 -14 -85 -2 -16 -11 -64 -20
-105 -8 -41 -17 -86 -20 -100 -2 -14 -31 -160 -64 -325 -34 -165 -64 -313 -67
-330 -29 -163 -67 -399 -80 -505 -3 -25 -10 -74 -16 -110 -5 -36 -12 -76 -14
-90 -2 -14 -13 -83 -24 -155 -11 -71 -23 -148 -26 -170 -3 -22 -10 -65 -15
-95 -5 -30 -12 -71 -15 -90 -2 -19 -13 -96 -24 -170 -11 -74 -23 -157 -26
-185 -4 -27 -8 -61 -10 -75 -2 -14 -7 -52 -10 -85 -3 -33 -8 -71 -10 -85 -3
-14 -7 -50 -10 -80 -3 -30 -7 -71 -10 -90 -2 -19 -7 -73 -10 -120 -3 -47 -8
-105 -10 -130 -2 -25 -7 -115 -10 -201 -8 -181 -5 -191 88 -334 87 -132 89
-134 235 -155 110 -16 125 -19 200 -35 69 -14 515 -127 652 -165 80 -22 153
-35 265 -46 39 -3 77 -8 85 -9 8 -2 43 -6 77 -10 35 -4 75 -8 90 -10 16 -2 62
-7 103 -11 41 -4 77 -8 80 -9 3 -1 37 -5 75 -9 39 -4 102 -11 140 -16 76 -10
128 -16 220 -25 33 -4 70 -8 83 -10 13 -2 53 -7 90 -10 37 -3 78 -8 92 -10 14
-3 52 -7 85 -10 33 -3 71 -8 85 -10 14 -2 49 -7 78 -10 28 -3 76 -7 105 -10
28 -3 63 -8 77 -10 14 -2 52 -7 85 -10 33 -3 94 -10 135 -15 41 -5 98 -12 125
-15 28 -2 127 -14 220 -24 94 -11 197 -23 230 -26 59 -6 242 -31 300 -41 17
-2 69 -7 116 -10 167 -12 232 35 293 212 22 64 47 175 61 269 8 54 25 164 30
195 3 14 14 81 25 150 12 69 30 179 41 244 28 173 97 623 115 751 8 61 21 142
29 180 16 84 20 111 35 240 6 55 13 111 15 125 2 14 7 52 11 85 3 33 8 67 9
76 2 9 6 40 10 69 4 29 8 61 10 71 2 9 7 39 11 66 3 26 8 55 9 63 2 8 8 51 15
95 6 44 13 91 16 105 2 14 6 45 10 70 3 25 7 56 9 69 3 14 11 75 20 135 9 61
18 127 21 146 21 148 36 251 40 285 3 22 9 69 15 105 6 36 13 83 16 105 3 22
11 76 18 120 19 116 13 183 -24 260 -16 36 -36 72 -43 80 -82 88 -121 120
-183 150 -38 18 -86 36 -105 40 -32 6 -44 20 -154 186 -66 99 -122 182 -125
184 -4 2 -31 6 -61 9 -30 3 -64 8 -76 10 -12 2 -45 7 -75 11 -30 3 -84 11
-122 16 -37 5 -89 11 -115 14 -44 5 -164 20 -242 30 -61 8 -113 14 -185 20
-38 4 -81 8 -95 10 -14 2 -63 7 -110 10 -47 4 -96 8 -110 10 -14 2 -79 7 -145
11 -66 4 -138 9 -160 11 -53 5 -882 13 -886 8z m-320 -414 c11 -7 12 -17 3
-54 -7 -25 -15 -62 -18 -84 -7 -42 -20 -73 -32 -73 -5 0 -15 6 -24 13 -15 11
-15 19 2 100 11 48 22 92 25 97 8 12 26 12 44 1z m2752 -193 c55 -174 56 -178
40 -278 -6 -36 -13 -83 -16 -105 -3 -22 -8 -51 -10 -65 -2 -14 -7 -45 -10 -70
-5 -38 -16 -110 -40 -260 -2 -14 -7 -45 -10 -70 -3 -25 -8 -56 -10 -70 -6 -33
-65 -435 -71 -480 -3 -19 -7 -46 -9 -60 -3 -14 -7 -45 -10 -70 -3 -25 -8 -56
-10 -70 -3 -14 -7 -41 -10 -60 -3 -19 -18 -125 -35 -235 -34 -224 -33 -219
-55 -370 -9 -60 -18 -123 -21 -140 -7 -42 -13 -84 -18 -125 -7 -49 -45 -301
-50 -325 -2 -11 -7 -42 -10 -70 -6 -43 -14 -96 -31 -205 -7 -47 -32 -215 -50
-340 -3 -19 -7 -48 -10 -65 -3 -16 -7 -46 -10 -65 -2 -19 -7 -46 -9 -60 -2
-14 -10 -65 -16 -115 -13 -96 -25 -139 -37 -132 -10 6 -118 17 -230 22 -48 3
-99 7 -113 10 -13 2 -67 7 -120 10 -52 3 -102 8 -110 10 -8 2 -60 7 -115 11
-55 3 -107 8 -115 9 -8 2 -53 6 -100 9 -47 4 -101 9 -120 11 -19 2 -69 7 -110
10 -41 3 -93 8 -115 10 -22 2 -71 6 -110 10 -38 3 -88 8 -110 10 -22 2 -76 7
-120 10 -44 3 -93 8 -110 10 -16 2 -66 6 -110 10 -44 3 -91 8 -105 10 -14 2
-65 7 -115 10 -49 4 -101 8 -115 10 -24 3 -75 8 -215 21 -33 3 -80 7 -105 9
-25 2 -99 9 -165 15 -66 6 -136 13 -155 15 -19 2 -45 4 -58 5 -20 0 -23 4 -18
27 6 28 10 54 22 128 3 22 14 87 25 144 10 58 19 109 19 114 0 8 581 2 760 -8
210 -11 338 -19 465 -30 33 -3 87 -7 120 -10 33 -3 78 -7 100 -10 22 -2 65 -7
95 -10 110 -12 146 -16 225 -26 44 -6 91 -13 105 -14 74 -9 263 -38 390 -61
206 -36 196 -34 292 -54 l87 -17 15 51 c8 28 24 94 36 146 12 52 31 131 41
175 11 44 22 94 25 110 3 17 11 58 19 93 8 34 17 77 20 95 3 17 17 88 30 157
23 119 69 361 79 425 3 17 8 41 10 55 3 14 8 43 11 65 3 22 16 105 30 185 13
80 27 163 30 185 4 22 8 49 10 60 1 11 6 40 9 65 3 25 10 70 16 100 5 30 12
75 15 100 3 25 8 56 10 70 2 14 7 45 10 70 3 25 10 72 15 105 12 82 21 145 26
178 2 15 6 45 9 67 3 22 7 52 9 67 2 15 9 66 16 113 7 47 14 99 16 115 2 17 6
41 8 55 3 14 8 54 12 90 3 36 7 67 9 70 1 3 6 30 9 61 4 31 8 66 10 76 3 11 7
44 11 74 3 30 8 65 10 79 2 14 7 48 10 75 4 28 8 64 10 80 12 95 17 125 20
125 2 0 27 -73 56 -162z m-2936 -9 c170 -46 319 -185 410 -383 31 -66 75 -203
75 -232 0 -9 -35 -12 -119 -12 l-118 1 -16 79 c-20 99 -50 162 -104 215 -121
120 -285 127 -418 19 -72 -59 -128 -194 -137 -326 -2 -30 -9 -54 -14 -53 -6 1
-28 4 -50 7 -21 2 -57 7 -79 11 -22 4 -49 8 -60 9 -29 4 -29 24 -5 139 64 301
225 497 440 535 53 10 139 6 195 -9z m875 -363 c47 -4 105 -9 130 -11 25 -2
83 -7 130 -11 47 -3 99 -8 115 -9 17 -1 73 -6 125 -10 52 -4 111 -8 130 -10
19 -2 69 -6 110 -10 41 -3 93 -8 115 -10 22 -2 83 -7 135 -10 52 -4 111 -8
130 -10 19 -2 76 -7 125 -10 50 -4 91 -8 93 -10 2 -2 5 -231 3 -278 -1 -10 -4
-16 -8 -14 -5 3 -51 8 -103 12 -52 4 -111 8 -130 10 -19 2 -71 6 -115 10 -44
3 -98 8 -120 10 -35 3 -86 7 -250 20 -49 4 -186 15 -240 20 -22 2 -85 7 -140
10 -55 4 -107 9 -115 10 -8 2 -62 6 -120 10 -58 4 -106 9 -108 10 -7 6 -4 274
3 285 3 5 9 8 13 6 4 -2 45 -7 92 -10z m-792 -129 c7 -8 8 -26 2 -52 -9 -40
-10 -50 -30 -185 -6 -41 -13 -86 -16 -100 -2 -14 -13 -95 -24 -180 -27 -209
-30 -229 -40 -275 -5 -22 -12 -56 -15 -75 -3 -19 -12 -60 -19 -90 -12 -48 -24
-102 -31 -150 -2 -8 -6 -40 -10 -70 -7 -58 -19 -80 -42 -80 -20 0 -31 39 -22
80 4 19 10 55 13 80 3 25 21 119 40 210 19 91 37 183 40 205 4 23 8 50 10 60
2 11 7 47 11 80 4 32 8 66 10 75 3 14 6 39 21 155 2 22 7 51 9 65 3 14 7 41
10 60 13 90 28 167 37 183 10 20 31 22 46 4z m747 -752 c44 -3 106 -8 138 -11
31 -3 81 -7 110 -9 84 -6 208 -15 257 -20 25 -2 83 -7 130 -10 47 -4 96 -8
110 -10 14 -2 72 -6 130 -10 58 -4 121 -8 140 -10 19 -2 76 -6 125 -10 50 -3
100 -8 110 -10 11 -2 29 -4 40 -4 19 -1 20 -7 20 -146 l0 -145 -50 4 c-27 3
-86 8 -130 11 -44 3 -102 8 -130 10 -27 2 -86 7 -130 10 -44 3 -102 8 -130 10
-27 3 -81 7 -120 10 -38 3 -90 7 -115 9 -25 3 -85 8 -135 11 -49 4 -115 9
-145 11 -30 3 -77 6 -105 8 -136 11 -232 18 -255 21 -14 2 -35 4 -46 4 -21 1
-22 5 -21 147 l1 145 60 -5 c34 -4 97 -8 141 -11z m-1058 -555 c143 -50 276
-183 362 -359 24 -51 49 -112 56 -141 1 -3 4 -12 8 -20 9 -24 37 -145 37 -162
0 -12 -18 -15 -114 -14 -63 1 -118 5 -122 9 -5 4 -10 31 -12 60 -5 73 -43 177
-87 237 -114 155 -311 175 -440 44 -76 -76 -135 -239 -135 -370 l0 -57 -47 7
c-27 3 -58 8 -70 10 -11 3 -42 8 -67 11 l-45 7 4 47 c15 172 71 348 150 477
127 203 323 284 522 214z m913 -274 c36 -3 97 -8 135 -11 39 -3 97 -8 130 -10
33 -3 96 -7 140 -10 44 -3 100 -8 125 -10 25 -2 83 -7 130 -10 47 -4 101 -8
120 -10 19 -2 85 -7 145 -10 61 -4 118 -9 127 -11 10 -1 68 -6 129 -10 62 -3
119 -8 128 -9 9 -2 28 -4 44 -4 l27 -1 0 -146 0 -146 -87 7 c-49 3 -106 8
-128 10 -22 2 -80 7 -130 10 -49 4 -106 8 -125 10 -33 3 -186 15 -275 20 -65
4 -207 16 -245 20 -19 2 -78 7 -130 10 -52 3 -108 8 -125 10 -16 2 -78 6 -137
10 -125 8 -135 9 -144 17 -3 4 -6 57 -6 120 1 186 -4 168 45 163 23 -2 71 -6
107 -9z m-881 -255 c6 -10 9 -20 7 -22 -2 -2 -7 -20 -10 -39 -3 -19 -10 -60
-16 -90 -6 -30 -13 -66 -15 -80 -3 -14 -7 -36 -10 -50 -3 -14 -8 -45 -11 -70
-3 -25 -8 -48 -10 -51 -2 -3 -8 -34 -13 -70 -6 -35 -13 -75 -16 -89 -4 -22
-18 -97 -32 -170 -6 -34 -26 -52 -47 -44 -14 5 -17 15 -13 43 4 31 47 274 62
351 3 14 14 77 26 140 12 63 22 120 23 125 2 6 6 33 11 60 4 28 12 56 17 63
15 18 36 15 47 -7z"/>
</g>
</svg>
